<svg width="32" height="32" viewBox="0 0 32 32" fill="none" xmlns="http://www.w3.org/2000/svg">
<path fill-rule="evenodd" clip-rule="evenodd" d="M1.6001 8.01627C1.6001 7.25627 2.0001 6.55227 2.6641 6.17627L12.8641 0.288272C13.1876 0.101501 13.5546 0.00317383 13.9281 0.00317383C14.3016 0.00317383 14.6686 0.101501 14.9921 0.288272L25.1921 6.17627C25.5152 6.3628 25.7835 6.63097 25.9703 6.95392C26.157 7.27686 26.2556 7.64322 26.2561 8.01627V12.8163L22.2561 10.5043C21.9326 10.3175 21.5656 10.2192 21.1921 10.2192C20.8186 10.2192 20.4516 10.3175 20.1281 10.5043L12.5201 14.8883C12.1955 15.0738 11.9256 15.3415 11.7374 15.6645C11.5492 15.9875 11.4494 16.3544 11.4481 16.7283V25.4883C11.4481 26.2083 11.8081 26.8643 12.4001 27.2563L2.6641 21.6403C2.34103 21.4537 2.07267 21.1856 1.88592 20.8626C1.69917 20.5397 1.60061 20.1733 1.6001 19.8003V8.01627Z" fill="#89C700"/>
<path fill-rule="evenodd" clip-rule="evenodd" d="M12.3999 27.2555L12.8639 27.5275C13.5199 27.9115 14.3359 27.9115 14.9919 27.5275L25.1919 21.6395C25.515 21.453 25.7833 21.1848 25.9701 20.8618C26.1568 20.5389 26.2554 20.1725 26.2559 19.7995V12.8235L29.8319 14.8875C30.155 15.074 30.4233 15.3422 30.6101 15.6651C30.7968 15.9881 30.8954 16.3544 30.8959 16.7275V25.4875C30.8959 26.2475 30.4959 26.9515 29.8319 27.3275L22.2479 31.7115C21.5919 32.0955 20.7839 32.0955 20.1279 31.7115L12.5199 27.3355L12.3999 27.2555Z" fill="#FFDD00"/>
<path fill-rule="evenodd" clip-rule="evenodd" d="M26.2579 12.8238L22.258 10.5038C21.9345 10.3171 21.5675 10.2188 21.194 10.2188C20.8204 10.2188 20.4534 10.3171 20.13 10.5038L12.522 14.8878C12.1974 15.0734 11.9274 15.3411 11.7392 15.6641C11.551 15.9871 11.4513 16.354 11.45 16.7278V25.4878C11.45 26.2078 11.81 26.8638 12.402 27.2558L12.866 27.5278C13.522 27.9118 14.338 27.9118 14.994 27.5278L25.194 21.6398C25.517 21.4533 25.7854 21.1851 25.9721 20.8622C26.1589 20.5393 26.2574 20.1729 26.2579 19.7998V12.8238Z" fill="#FFDD00"/>
</svg>
