<svg width="20" height="20" viewBox="0 0 20 20" fill="none" xmlns="http://www.w3.org/2000/svg">
  <g clip-path="url(#clip0_8303_25148)">
    <path
      d="M1.03234 20.0001C0.768889 20.0001 0.50544 19.8998 0.305278 19.6982C-0.0965511 19.2963 -0.0965511 18.6449 0.305278 18.2431L18.247 0.301372C18.6488 -0.100457 19.3003 -0.100457 19.7021 0.301372C20.1039 0.703201 20.1039 1.35467 19.7021 1.75675L1.76065 19.6982C1.55899 19.8986 1.29554 20.0001 1.03234 20.0001Z"
      fill="#283849"></path>
    <path
      d="M18.9753 20.0001C18.7118 20.0001 18.4486 19.8998 18.2482 19.6982L0.305278 1.75675C-0.0965511 1.35467 -0.0965511 0.703201 0.305278 0.301372C0.707108 -0.100457 1.35857 -0.100457 1.76065 0.301372L19.7021 18.2431C20.1039 18.6449 20.1039 19.2963 19.7021 19.6982C19.5004 19.8986 19.2372 20.0001 18.9753 20.0001Z"
      fill="#283849"></path>
  </g>
  <defs>
    <clipPath id="clip0_8303_25148">
      <rect width="20" height="20" fill="white"></rect>
    </clipPath>
  </defs>
</svg>